<svg height="511pt" viewBox="1 0 511.9995 511" width="511pt" xmlns="http://www.w3.org/2000/svg"><g fill-rule="evenodd"><path d="m284.734375 57.640625c-62.851563-62.851563-164.75-62.851563-227.597656 0-62.851563 62.847656-62.851563 164.746094 0 227.597656 62.847656 62.847657 164.746093 62.847657 227.597656 0 62.847656-62.851562 62.847656-164.75 0-227.597656zm0 0" fill="#67e4dc"/><path d="m338.640625 339.140625h.003906c15.308594-15.308594 40.355469-15.308594 55.664063 0l96.1875 96.1875c15.308594 15.308594 15.308594 40.355469 0 55.664063-15.308594 15.3125-40.359375 15.3125-55.667969 0l-96.1875-96.183594c-15.308594-15.308594-15.308594-40.359375 0-55.667969zm0 0" fill="#fec96b"/><path d="m167.976562 242.203125c27.859376 0 50.582032-25.5 50.582032-56.757813 0-31.261718-22.722656-56.757812-50.582032-56.757812-27.859374 0-50.582031 25.496094-50.582031 56.757812 0 31.257813 22.722657 56.757813 50.582031 56.757813zm0 0" fill="#fec96b"/><path d="m167.976562 81.488281c-19.882812 0-35.996093 15.675781-35.996093 35.007813 0 8.242187 2.929687 15.816406 7.828125 21.800781 8.050781-6.070313 17.742187-9.609375 28.167968-9.609375 10.429688 0 20.117188 3.539062 28.167969 9.609375 4.902344-5.980469 7.828125-13.558594 7.828125-21.800781 0-19.332032-16.117187-35.007813-35.996094-35.007813zm0 0" fill="#ff8f8e"/></g><path d="m170.9375 342.375c-45.660156 0-88.585938-17.78125-120.871094-50.066406s-50.066406-75.210938-50.066406-120.871094 17.78125-88.585938 50.066406-120.871094 75.210938-50.066406 120.871094-50.066406 88.585938 17.78125 120.871094 50.066406 50.0625 75.210938 50.0625 120.871094c0 45.65625-17.777344 88.585938-50.0625 120.871094s-75.210938 50.066406-120.871094 50.066406zm0-321.875c-40.316406 0-78.222656 15.699219-106.730469 44.207031-28.507812 28.507813-44.207031 66.414063-44.207031 106.730469s15.699219 78.222656 44.207031 106.730469c28.507813 28.507812 66.414063 44.207031 106.730469 44.207031s78.222656-15.699219 106.726562-44.207031c28.511719-28.511719 44.210938-66.414063 44.210938-106.730469s-15.699219-78.222656-44.210938-106.730469c-28.503906-28.507812-66.410156-44.207031-106.726562-44.207031zm0 0"/><path d="m462.660156 512.476562c-13.214844 0-25.609375-5.121093-34.902344-14.414062l-19.8125-19.808594c-3.902343-3.90625-3.902343-10.234375 0-14.140625 3.90625-3.90625 10.234376-3.90625 14.144532 0l19.808594 19.808594c5.515624 5.515625 12.890624 8.554687 20.761718 8.554687 7.875 0 15.25-3.039062 20.765625-8.554687 11.445313-11.445313 11.445313-30.078125 0-41.523437l-96.1875-96.1875c-5.515625-5.515626-12.890625-8.550782-20.761719-8.550782-7.875 0-15.246093 3.035156-20.761718 8.550782-5.519532 5.515624-8.554688 12.890624-8.554688 20.761718 0 7.875 3.035156 15.25 8.550782 20.765625l19.8125 19.808594c3.90625 3.902344 3.90625 10.234375 0 14.140625s-10.234376 3.90625-14.140626 0l-19.8125-19.8125c-9.292968-9.289062-14.410156-21.6875-14.410156-34.902344s5.117188-25.613281 14.410156-34.90625c19.246094-19.246094 50.5625-19.246094 69.808594 0l96.1875 96.1875c19.246094 19.246094 19.246094 50.5625 0 69.808594-9.292968 9.296875-21.691406 14.414062-34.90625 14.414062zm0 0"/><path d="m338.644531 349.140625c-2.5625 0-5.121093-.976563-7.070312-2.929687l-53.90625-53.902344c-3.90625-3.90625-3.90625-10.238282 0-14.140625 3.90625-3.90625 10.234375-3.90625 14.140625 0l53.90625 53.902343c3.90625 3.90625 3.90625 10.238282 0 14.140626-1.953125 1.953124-4.511719 2.929687-7.070313 2.929687zm0 0"/><path d="m259.777344 175.328125c-.007813 0-.019532 0-.027344 0l-31.875.089844c-.632812-4.585938-1.691406-9.019531-3.125-13.253907l24.328125-12.375c3.351563-1.707031 5.464844-5.152343 5.464844-8.914062v-33.140625c0-5.523437-4.476563-10-10-10-5.523438 0-10 4.476563-10 10v27.007813l-18.878907 9.605468c-1.980468-2.789062-4.15625-5.402344-6.507812-7.808594 3.140625-6.195312 4.816406-13.070312 4.816406-20.042968 0-13.390625-6.011718-25.425782-15.527344-33.675782l9.160157-21.441406c2.167969-5.078125-.1875-10.953125-5.269531-13.121094-5.074219-2.171874-10.953126.1875-13.121094 5.265626l-8.441406 19.75c-4.066407-1.152344-8.355469-1.785157-12.796876-1.785157-4.441406 0-8.734374.632813-12.800781 1.785157l-8.4375-19.75c-2.167969-5.078126-8.042969-7.4375-13.121093-5.269532-5.082032 2.171875-7.4375 8.046875-5.269532 13.125l9.160156 21.441406c-9.515624 8.25-15.53125 20.285157-15.53125 33.675782 0 6.972656 1.679688 13.847656 4.820313 20.042968-2.351563 2.40625-4.527344 5.019532-6.511719 7.808594l-18.875-9.605468v-27.007813c0-5.523437-4.480468-10-10-10-5.523437 0-10 4.476563-10 10v33.140625c0 3.765625 2.109375 7.207031 5.464844 8.914062l24.328125 12.375c-1.433594 4.234376-2.496094 8.667969-3.125 13.253907l-31.875-.089844c-.007813 0-.019531 0-.027344 0-5.511719 0-9.984375 4.460937-10 9.972656-.015625 5.523438 4.449219 10.011719 9.972657 10.027344l31.925781.089844c.664062 4.863281 1.816406 9.550781 3.382812 14.015625l-24.238281 12.332031c-3.355469 1.707031-5.464844 5.148437-5.464844 8.914063v33.140624c0 5.523438 4.476563 10 9.996094 10 5.523438 0 10-4.476562 10-10v-27.011718l18.976562-9.652344c11.113282 15.253906 28.160157 25.042969 47.25 25.042969 19.089844 0 36.136719-9.789063 47.25-25.042969l18.972657 9.652344v27.011718c0 5.519532 4.480469 9.996094 10 9.996094 5.523437 0 10-4.476562 10-9.996094v-33.144531c0-3.761719-2.109375-7.207031-5.464844-8.910156l-24.238281-12.332031c1.566406-4.464844 2.71875-9.152344 3.382812-14.015625l31.929688-.089844c5.519531-.015625 9.984375-4.507813 9.96875-10.027344-.015625-5.515625-4.488282-9.972656-10-9.972656zm-65.800782-58.832031c0 2.746094-.453124 5.417968-1.332031 7.945312-3.074219-1.507812-6.257812-2.71875-9.515625-3.640625-.0625-.019531-.125-.03125-.1875-.046875-.898437-.253906-1.804687-.488281-2.714844-.695312-.164062-.035156-.332031-.0625-.496093-.101563-.820313-.175781-1.644531-.347656-2.472657-.488281-.304687-.050781-.617187-.085938-.921874-.132812-.703126-.105469-1.40625-.214844-2.113282-.296876-.515625-.058593-1.035156-.089843-1.554687-.132812-.511719-.042969-1.023438-.101562-1.539063-.128906-1.046875-.058594-2.097656-.089844-3.152344-.089844-1.058593 0-2.109374.03125-3.152343.089844-.523438.027344-1.039063.085937-1.5625.128906-.511719.046875-1.023438.074219-1.53125.132812-.714844.082032-1.425781.191407-2.136719.300782-.296875.046875-.601562.078125-.898438.128906-.835937.140625-1.667968.3125-2.496093.492188-.15625.035156-.316407.0625-.472657.097656-.917968.207031-1.832031.445312-2.742187.699218-.050781.015626-.105469.027344-.160156.042969-3.257813.921875-6.441407 2.128907-9.519531 3.640625-.878907-2.527344-1.332032-5.199218-1.332032-7.945312 0-13.789063 11.664063-25.007813 26-25.007813 14.339844 0 26.003906 11.21875 26.003906 25.007813zm-66.582031 68.949218c0-16.84375 7.773438-31.632812 19.398438-39.863281.066406-.046875.128906-.097656.195312-.144531.515625-.359375 1.035157-.703125 1.5625-1.035156.109375-.070313.21875-.132813.328125-.203125.425782-.261719.859375-.519531 1.296875-.765625.132813-.074219.269531-.152344.40625-.226563.5-.273437 1.007813-.539062 1.519531-.792969.039063-.019531.078126-.039062.117188-.058593.554688-.269531 1.113281-.523438 1.679688-.765625.140624-.058594.28125-.113282.417968-.171875.433594-.179688.875-.351563 1.316406-.515625.160157-.058594.320313-.117188.480469-.175782.566407-.199218 1.136719-.386718 1.710938-.558593.050781-.015625.097656-.027344.148437-.039063 0-.003906.003906-.003906.007813-.003906v90.636719c-17.558594-5.144531-30.585938-23.507813-30.585938-45.316407zm50.582031 45.316407v-90.636719c.054688.015625.105469.027344.15625.046875.570313.167969 1.136719.355469 1.695313.554687.171875.058594.339844.121094.511719.1875.425781.15625.851562.324219 1.277344.496094.148437.0625.300781.121094.449218.1875.558594.238282 1.113282.488282 1.660156.753906.054688.027344.109376.058594.167969.085938.492188.242188.980469.5 1.460938.761719.148437.082031.292969.164062.441406.246093.421875.238282.839844.488282 1.253906.742188.121094.074219.242188.144531.359375.21875.523438.332031 1.039063.671875 1.546875 1.027344.074219.054687.148438.109375.222657.164062 11.613281 8.234375 19.375 23.015625 19.375 39.847656.003906 21.808594-13.019532 40.171876-30.578126 45.316407zm0 0"/><path d="m386.734375 452.902344c5.507813 0 10-4.492188 10-10 0-5.507813-4.492187-10-10-10s-10 4.492187-10 10c0 5.507812 4.492187 10 10 10zm0 0" fill-rule="evenodd"/></svg>